<?xml version="1.0" encoding="utf-8"?>
<!-- Generator: Adobe Illustrator 27.2.0, SVG Export Plug-In . SVG Version: 6.00 Build 0)  -->
<svg version="1.1" id="Layer_1" xmlns="http://www.w3.org/2000/svg" xmlns:xlink="http://www.w3.org/1999/xlink" x="0px" y="0px"
	 viewBox="0 0 80 80" style="enable-background:new 0 0 80 80;" xml:space="preserve">
<style type="text/css">
	.st0{fill:none;stroke:#FEBD2D;stroke-width:4;stroke-linecap:round;stroke-linejoin:round;}
</style>
<path class="st0" d="M14.47,31.25c-0.38,0-0.76-0.08-1.11-0.25c-0.35-0.16-0.65-0.4-0.89-0.69c-0.24-0.29-0.41-0.63-0.5-0.99
	s-0.09-0.74-0.01-1.1c2.06-9.63,13.82-16.97,28.04-16.97s25.99,7.34,28.05,16.97c0.08,0.36,0.08,0.74-0.01,1.1
	c-0.09,0.36-0.26,0.7-0.5,0.99c-0.24,0.29-0.55,0.53-0.89,0.69c-0.34,0.17-0.72,0.25-1.11,0.25H14.47z"/>
<path class="st0" d="M65.79,53.75v5c0,2.65-1.09,5.2-3.02,7.07c-1.94,1.88-4.56,2.93-7.3,2.93H24.52c-2.74,0-5.36-1.05-7.3-2.93
	c-1.94-1.88-3.02-4.42-3.02-7.07v-5"/>
<path class="st0" d="M7.76,56.25l12.9-5l12.9,5l12.9-5l12.9,5l12.9-5"/>
<path class="st0" d="M6.47,41.25h67.07"/>
</svg>
