<?xml version="1.0" encoding="utf-8"?>
<!-- Generator: Adobe Illustrator 27.2.0, SVG Export Plug-In . SVG Version: 6.00 Build 0)  -->
<svg version="1.1" id="Layer_1" xmlns="http://www.w3.org/2000/svg" xmlns:xlink="http://www.w3.org/1999/xlink" x="0px" y="0px"
	 viewBox="0 0 80 80" style="enable-background:new 0 0 80 80;" xml:space="preserve">
<style type="text/css">
	.st0{fill:none;stroke:#FEBD2D;stroke-width:4;stroke-linecap:round;stroke-linejoin:round;}
</style>
<path class="st0" d="M29.68,48.75h20.64"/>
<path class="st0" d="M29.68,38.75h20.64"/>
<path class="st0" d="M50.32,13.75h12.9c0.68,0,1.34,0.26,1.82,0.73c0.48,0.47,0.76,1.1,0.76,1.77v52.5c0,0.66-0.27,1.3-0.76,1.77
	c-0.48,0.47-1.14,0.73-1.82,0.73H16.78c-0.68,0-1.34-0.26-1.82-0.73c-0.49-0.47-0.76-1.11-0.76-1.77v-52.5
	c0-0.66,0.27-1.3,0.76-1.77c0.48-0.47,1.14-0.73,1.82-0.73h12.9"/>
<path class="st0" d="M27.1,23.75v-2.5c0-3.32,1.36-6.49,3.78-8.84c2.41-2.34,5.69-3.66,9.12-3.66c3.43,0,6.7,1.32,9.12,3.66
	s3.78,5.52,3.78,8.84v2.5H27.1z"/>
</svg>
