<?xml version="1.0" encoding="utf-8"?>
<!-- Generator: Adobe Illustrator 27.2.0, SVG Export Plug-In . SVG Version: 6.00 Build 0)  -->
<svg version="1.1" id="Layer_1" xmlns="http://www.w3.org/2000/svg" xmlns:xlink="http://www.w3.org/1999/xlink" x="0px" y="0px"
	 viewBox="0 0 80 80" style="enable-background:new 0 0 80 80;" xml:space="preserve">
<style type="text/css">
	.st0{fill:none;stroke:#FEBD2D;stroke-width:4;stroke-linecap:round;stroke-linejoin:round;}
</style>
<path class="st0" d="M29.68,10v10"/>
<path class="st0" d="M40,10v10"/>
<path class="st0" d="M50.32,10v10"/>
<path class="st0" d="M14.2,30h51.59c0.68,0,1.34,0.26,1.82,0.73c0.49,0.47,0.76,1.11,0.76,1.77v30c0,0.99-0.19,1.96-0.58,2.88
	c-0.39,0.91-0.96,1.74-1.68,2.44c-0.72,0.7-1.57,1.25-2.52,1.62C62.66,69.81,61.65,70,60.64,70H19.36c-1.02,0-2.03-0.19-2.97-0.56
	c-0.94-0.38-1.8-0.93-2.51-1.62c-0.72-0.7-1.29-1.53-1.68-2.44c-0.39-0.91-0.58-1.89-0.58-2.88v-30c0-0.66,0.27-1.3,0.76-1.77
	C12.86,30.26,13.52,30,14.2,30z"/>
<path class="st0" d="M76.63,37l-8.26,5.5"/>
<path class="st0" d="M3.37,37l8.25,5.5"/>
</svg>
