<?xml version="1.0" encoding="utf-8"?>
<!-- Generator: Adobe Illustrator 27.2.0, SVG Export Plug-In . SVG Version: 6.00 Build 0)  -->
<svg version="1.1" id="Layer_1" xmlns="http://www.w3.org/2000/svg" xmlns:xlink="http://www.w3.org/1999/xlink" x="0px" y="0px"
	 viewBox="0 0 162.03 40" style="enable-background:new 0 0 162.03 40;" xml:space="preserve">
<path d="M7,15.83c0.56,0,1.03-0.07,1.41-0.21c0.39-0.16,0.69-0.39,0.89-0.7s0.31-0.71,0.31-1.2c0-0.42-0.11-0.77-0.33-1.06
	c-0.2-0.28-0.5-0.52-0.89-0.73c-0.38-0.2-0.82-0.39-1.34-0.56c-0.52-0.17-1.1-0.34-1.74-0.52c-0.59-0.19-1.18-0.41-1.76-0.66
	C2.97,9.92,2.44,9.6,1.97,9.2C1.5,8.8,1.13,8.3,0.85,7.7c-0.27-0.59-0.4-1.32-0.4-2.18c0-1.05,0.25-1.93,0.75-2.65
	C1.71,2.13,2.4,1.57,3.24,1.2C4.1,0.81,5.03,0.61,6.03,0.61c0.86,0,1.62,0.12,2.28,0.35c0.66,0.22,1.23,0.6,1.71,1.15
	c0.5,0.55,0.92,1.3,1.24,2.25l-1.2-0.16l0.47-3.36h1.74v4.41h-2.04c-0.19-0.59-0.47-1.1-0.85-1.5C9.03,3.35,8.61,3.04,8.12,2.84
	C7.65,2.62,7.13,2.51,6.55,2.51c-0.5,0-0.93,0.08-1.29,0.23C4.92,2.89,4.65,3.1,4.46,3.38C4.27,3.66,4.18,4,4.18,4.39
	s0.1,0.72,0.31,0.99C4.7,5.64,4.99,5.87,5.35,6.06c0.38,0.17,0.81,0.33,1.29,0.47c0.49,0.14,1.01,0.28,1.57,0.42
	c0.67,0.19,1.32,0.41,1.95,0.66c0.63,0.25,1.18,0.58,1.67,0.99c0.5,0.39,0.89,0.88,1.17,1.48c0.28,0.58,0.42,1.3,0.42,2.16
	c0,1.11-0.25,2.08-0.75,2.91c-0.49,0.83-1.18,1.47-2.09,1.93c-0.91,0.45-1.99,0.68-3.24,0.68c-0.91,0-1.78-0.14-2.61-0.42
	c-0.81-0.28-1.55-0.74-2.21-1.39c-0.64-0.64-1.15-1.51-1.53-2.61l1.31,0.23l-0.47,3.94H0v-5.24h2.18c0.28,0.74,0.67,1.37,1.15,1.9
	S4.38,15.12,5,15.4C5.64,15.69,6.31,15.83,7,15.83z"/>
<path d="M24.23,9.02l-0.4-0.19l2.14,8.69h4.11l2.49-9.56c0.08-0.25,0.18-0.45,0.31-0.59c0.13-0.14,0.27-0.24,0.45-0.31
	c0.17-0.08,0.35-0.12,0.54-0.12h0.02V5.49h-4.53v1.46h0.05c0.23,0,0.45,0.02,0.66,0.07c0.22,0.03,0.39,0.09,0.52,0.16
	c0.14,0.08,0.21,0.16,0.21,0.26l-2.21,8.64l0.77-0.89l-2.51-9.7h-3.4l-2.7,10.66l0.68-0.94l-1.95-8.05c0-0.06,0.07-0.1,0.21-0.12
	c0.16-0.03,0.34-0.05,0.56-0.07c0.23-0.02,0.48-0.02,0.73-0.02h0.02V5.49h-6.93v1.46h0.02c0.23,0,0.43,0.02,0.59,0.07
	c0.16,0.05,0.29,0.13,0.4,0.23c0.13,0.11,0.21,0.27,0.26,0.47l2.61,9.79h4.09L24.23,9.02z"/>
<path d="M38.65,11.55c0,0.69,0.06,1.3,0.19,1.83c0.14,0.53,0.34,0.99,0.59,1.36c0.25,0.36,0.58,0.63,0.99,0.82
	c0.41,0.17,0.88,0.26,1.41,0.26c0.56,0,1.04-0.1,1.43-0.31c0.41-0.22,0.75-0.49,1.03-0.82c0.3-0.34,0.54-0.69,0.73-1.03l1.53,1.06
	c-0.31,0.58-0.71,1.1-1.2,1.57c-0.49,0.45-1.07,0.81-1.76,1.08c-0.67,0.25-1.48,0.38-2.42,0.38c-1.36,0-2.56-0.25-3.59-0.75
	c-1.02-0.5-1.81-1.21-2.37-2.14c-0.56-0.94-0.85-2.05-0.85-3.33c0-1.25,0.27-2.35,0.82-3.29c0.56-0.94,1.32-1.67,2.28-2.18
	c0.97-0.53,2.07-0.8,3.29-0.8c0.99,0,1.85,0.15,2.58,0.45C44.07,5.99,44.7,6.42,45.2,7c0.52,0.58,0.9,1.31,1.15,2.18
	c0.27,0.86,0.4,1.87,0.4,3.03h-8.57v-1.69h5.1l-0.52,0.7c-0.02-0.8-0.06-1.46-0.14-1.97c-0.08-0.53-0.2-0.95-0.35-1.27
	c-0.16-0.31-0.35-0.53-0.59-0.66c-0.23-0.14-0.52-0.21-0.85-0.21c-0.33,0-0.63,0.09-0.89,0.26c-0.25,0.17-0.48,0.44-0.68,0.8
	c-0.19,0.36-0.34,0.82-0.45,1.39C38.7,10.1,38.65,10.77,38.65,11.55z"/>
<path d="M52.47,11.55c0,0.69,0.06,1.3,0.19,1.83c0.14,0.53,0.34,0.99,0.59,1.36c0.25,0.36,0.58,0.63,0.99,0.82
	c0.41,0.17,0.88,0.26,1.41,0.26c0.56,0,1.04-0.1,1.43-0.31c0.41-0.22,0.75-0.49,1.03-0.82c0.3-0.34,0.54-0.69,0.73-1.03l1.53,1.06
	c-0.31,0.58-0.71,1.1-1.2,1.57c-0.49,0.45-1.07,0.81-1.76,1.08c-0.67,0.25-1.48,0.38-2.42,0.38c-1.36,0-2.56-0.25-3.59-0.75
	c-1.02-0.5-1.81-1.21-2.37-2.14c-0.56-0.94-0.85-2.05-0.85-3.33c0-1.25,0.27-2.35,0.82-3.29c0.56-0.94,1.32-1.67,2.28-2.18
	c0.97-0.53,2.07-0.8,3.29-0.8c0.99,0,1.85,0.15,2.58,0.45C57.9,5.99,58.53,6.42,59.03,7c0.52,0.58,0.9,1.31,1.15,2.18
	c0.27,0.86,0.4,1.87,0.4,3.03h-8.57v-1.69h5.1l-0.52,0.7c-0.02-0.8-0.06-1.46-0.14-1.97c-0.08-0.53-0.2-0.95-0.35-1.27
	c-0.16-0.31-0.35-0.53-0.59-0.66c-0.23-0.14-0.52-0.21-0.85-0.21c-0.33,0-0.63,0.09-0.89,0.26c-0.25,0.17-0.48,0.44-0.68,0.8
	c-0.19,0.36-0.34,0.82-0.45,1.39C52.53,10.1,52.47,10.77,52.47,11.55z"/>
<path d="M61.28,7.21v-1.6h0.07c0.34,0,0.64-0.02,0.89-0.07c0.25-0.06,0.45-0.16,0.59-0.31c0.14-0.14,0.21-0.35,0.21-0.63l2.49,0.89
	h4.7v1.71H61.28z M67.17,13.34c0,0.61,0.06,1.1,0.19,1.46c0.14,0.34,0.34,0.59,0.59,0.75c0.25,0.14,0.56,0.21,0.94,0.21
	c0.3,0,0.58-0.03,0.85-0.09c0.27-0.06,0.47-0.12,0.61-0.16v1.83c-0.13,0.06-0.31,0.13-0.56,0.19c-0.25,0.06-0.55,0.12-0.89,0.16
	c-0.33,0.05-0.7,0.07-1.1,0.07c-0.92,0-1.76-0.13-2.51-0.4c-0.74-0.27-1.31-0.71-1.74-1.34c-0.42-0.64-0.63-1.5-0.63-2.58V5.94
	l0.14-0.16l0.02-3.55h4.11V13.34z"/>
<path d="M85.96,0.85c0.99,0,1.85,0.09,2.61,0.28c0.77,0.19,1.4,0.46,1.9,0.82c0.52,0.34,0.91,0.77,1.17,1.27s0.4,1.06,0.4,1.69
	c0,0.85-0.23,1.56-0.68,2.14c-0.44,0.58-1.06,1.02-1.85,1.31c-0.78,0.3-1.7,0.47-2.75,0.52l0.99-0.49v0.7l-0.8-0.54
	c1.14,0.03,2.14,0.22,3.01,0.56c0.88,0.33,1.56,0.81,2.04,1.43c0.49,0.61,0.73,1.37,0.73,2.28c0,0.74-0.15,1.39-0.45,1.97
	c-0.28,0.58-0.7,1.07-1.27,1.48c-0.55,0.41-1.23,0.72-2.04,0.94c-0.81,0.2-1.75,0.31-2.79,0.31h-8.78v-1.57h0.23
	c0.42,0,0.76-0.05,1.01-0.16c0.27-0.11,0.4-0.34,0.4-0.68V3.26c0-0.34-0.13-0.57-0.4-0.68c-0.25-0.11-0.59-0.16-1.01-0.16h-0.23
	V0.85H85.96z M82.81,7.96h2.07c0.64,0,1.15-0.11,1.53-0.33c0.39-0.22,0.67-0.53,0.85-0.94c0.17-0.42,0.26-0.94,0.26-1.55
	c0-0.55-0.09-1-0.28-1.36c-0.19-0.38-0.47-0.66-0.85-0.85c-0.38-0.2-0.85-0.31-1.41-0.31h-1.41v13.1h1.57
	c0.64,0,1.18-0.11,1.62-0.33c0.45-0.22,0.79-0.56,1.01-1.01c0.23-0.45,0.35-1.03,0.35-1.74c0-0.61-0.11-1.14-0.33-1.57
	c-0.2-0.45-0.53-0.8-0.99-1.03c-0.45-0.25-1.04-0.38-1.76-0.38h-2.23V7.96z"/>
<path d="M98.77,11.55c0,0.69,0.06,1.3,0.19,1.83c0.14,0.53,0.34,0.99,0.59,1.36c0.25,0.36,0.58,0.63,0.99,0.82
	c0.41,0.17,0.88,0.26,1.41,0.26c0.56,0,1.04-0.1,1.43-0.31c0.41-0.22,0.75-0.49,1.03-0.82c0.3-0.34,0.54-0.69,0.73-1.03l1.53,1.06
	c-0.31,0.58-0.71,1.1-1.2,1.57c-0.49,0.45-1.07,0.81-1.76,1.08c-0.67,0.25-1.48,0.38-2.42,0.38c-1.36,0-2.56-0.25-3.59-0.75
	c-1.02-0.5-1.81-1.21-2.37-2.14c-0.56-0.94-0.85-2.05-0.85-3.33c0-1.25,0.27-2.35,0.82-3.29c0.56-0.94,1.32-1.67,2.28-2.18
	c0.97-0.53,2.07-0.8,3.29-0.8c0.99,0,1.85,0.15,2.58,0.45c0.75,0.28,1.38,0.71,1.88,1.29c0.52,0.58,0.9,1.31,1.15,2.18
	c0.27,0.86,0.4,1.87,0.4,3.03H98.3v-1.69h5.1l-0.52,0.7c-0.02-0.8-0.06-1.46-0.14-1.97c-0.08-0.53-0.2-0.95-0.35-1.27
	c-0.16-0.31-0.35-0.53-0.59-0.66c-0.24-0.14-0.52-0.21-0.85-0.21c-0.33,0-0.63,0.09-0.89,0.26c-0.25,0.17-0.48,0.44-0.68,0.8
	c-0.19,0.36-0.34,0.82-0.45,1.39C98.83,10.1,98.77,10.77,98.77,11.55z"/>
<path d="M117.65,5.45v3.66c-0.11-0.05-0.24-0.08-0.4-0.09c-0.16-0.03-0.32-0.05-0.49-0.07c-0.16-0.02-0.32-0.02-0.49-0.02
	c-0.36,0-0.7,0.04-1.01,0.12c-0.31,0.06-0.6,0.17-0.87,0.33c-0.25,0.14-0.48,0.34-0.68,0.59c-0.2,0.25-0.39,0.56-0.56,0.92V9.49
	c0.22-0.81,0.48-1.53,0.78-2.14c0.3-0.63,0.67-1.11,1.13-1.46c0.45-0.36,1.03-0.54,1.74-0.54c0.19,0,0.36,0.01,0.52,0.02
	C117.45,5.39,117.57,5.42,117.65,5.45z M108.09,17.52v-1.48h0.02c0.36,0,0.66-0.05,0.89-0.14c0.23-0.09,0.35-0.28,0.35-0.56V7.87
	c0-0.17-0.04-0.3-0.12-0.38c-0.08-0.09-0.2-0.17-0.35-0.23c-0.16-0.06-0.36-0.13-0.61-0.19l-0.19-0.05V5.49h5.26v3.8l0.28-0.28v6.6
	c0,0.13,0.09,0.22,0.26,0.28c0.19,0.06,0.4,0.1,0.63,0.12c0.24,0.02,0.45,0.02,0.63,0.02h0.19v1.48H108.09z"/>
<path d="M128.33,5.45v3.66c-0.11-0.05-0.24-0.08-0.4-0.09c-0.16-0.03-0.32-0.05-0.49-0.07c-0.16-0.02-0.32-0.02-0.49-0.02
	c-0.36,0-0.7,0.04-1.01,0.12c-0.31,0.06-0.6,0.17-0.87,0.33c-0.25,0.14-0.48,0.34-0.68,0.59c-0.2,0.25-0.39,0.56-0.56,0.92V9.49
	c0.22-0.81,0.48-1.53,0.78-2.14c0.3-0.63,0.67-1.11,1.13-1.46c0.45-0.36,1.03-0.54,1.74-0.54c0.19,0,0.36,0.01,0.52,0.02
	C128.14,5.39,128.26,5.42,128.33,5.45z M118.78,17.52v-1.48h0.02c0.36,0,0.66-0.05,0.89-0.14c0.24-0.09,0.35-0.28,0.35-0.56V7.87
	c0-0.17-0.04-0.3-0.12-0.38c-0.08-0.09-0.2-0.17-0.35-0.23c-0.16-0.06-0.36-0.13-0.61-0.19l-0.19-0.05V5.49h5.26v3.8l0.28-0.28v6.6
	c0,0.13,0.09,0.22,0.26,0.28c0.19,0.06,0.4,0.1,0.63,0.12c0.24,0.02,0.45,0.02,0.63,0.02h0.19v1.48H118.78z"/>
<path d="M132.82,3.85c-0.72,0-1.29-0.16-1.71-0.49c-0.41-0.34-0.61-0.82-0.61-1.43s0.2-1.08,0.61-1.41C131.53,0.17,132.1,0,132.82,0
	c0.7,0,1.26,0.17,1.67,0.52c0.42,0.33,0.63,0.8,0.63,1.41s-0.21,1.09-0.63,1.43C134.08,3.69,133.52,3.85,132.82,3.85z M135.03,5.49
	v9.84c0,0.28,0.12,0.47,0.35,0.56c0.24,0.09,0.53,0.14,0.89,0.14h0.02v1.48h-6.83v-1.48h0.02c0.36,0,0.66-0.05,0.89-0.14
	c0.24-0.09,0.35-0.28,0.35-0.56V7.87c0-0.25-0.09-0.42-0.26-0.52c-0.16-0.09-0.43-0.19-0.82-0.28l-0.19-0.05V5.49H135.03z"/>
<path d="M141.72,11.55c0,0.69,0.06,1.3,0.19,1.83c0.14,0.53,0.34,0.99,0.59,1.36c0.25,0.36,0.58,0.63,0.99,0.82
	c0.41,0.17,0.88,0.26,1.41,0.26c0.56,0,1.04-0.1,1.43-0.31c0.41-0.22,0.75-0.49,1.03-0.82c0.3-0.34,0.54-0.69,0.73-1.03l1.53,1.06
	c-0.31,0.58-0.71,1.1-1.2,1.57c-0.49,0.45-1.07,0.81-1.76,1.08c-0.67,0.25-1.48,0.38-2.42,0.38c-1.36,0-2.56-0.25-3.59-0.75
	c-1.02-0.5-1.81-1.21-2.37-2.14c-0.56-0.94-0.85-2.05-0.85-3.33c0-1.25,0.27-2.35,0.82-3.29c0.56-0.94,1.32-1.67,2.28-2.18
	c0.97-0.53,2.07-0.8,3.29-0.8c0.99,0,1.85,0.15,2.58,0.45c0.75,0.28,1.38,0.71,1.88,1.29c0.52,0.58,0.9,1.31,1.15,2.18
	c0.27,0.86,0.4,1.87,0.4,3.03h-8.57v-1.69h5.09l-0.52,0.7c-0.02-0.8-0.06-1.46-0.14-1.97c-0.08-0.53-0.2-0.95-0.35-1.27
	c-0.16-0.31-0.35-0.53-0.59-0.66c-0.23-0.14-0.52-0.21-0.84-0.21c-0.33,0-0.63,0.09-0.89,0.26c-0.25,0.17-0.48,0.44-0.68,0.8
	c-0.19,0.36-0.34,0.82-0.45,1.39C141.77,10.1,141.72,10.77,141.72,11.55z"/>
<path d="M158.2,14.61c0-0.27-0.08-0.48-0.24-0.63c-0.14-0.17-0.34-0.31-0.61-0.42c-0.25-0.13-0.54-0.23-0.87-0.31
	c-0.33-0.09-0.68-0.2-1.06-0.31c-0.47-0.13-0.95-0.27-1.43-0.42c-0.48-0.17-0.93-0.39-1.34-0.66c-0.41-0.28-0.74-0.64-0.99-1.08
	c-0.24-0.45-0.35-1.03-0.35-1.71c0-0.83,0.22-1.53,0.66-2.11c0.45-0.58,1.07-1.01,1.85-1.29c0.8-0.3,1.73-0.45,2.79-0.45
	c0.88,0,1.63,0.07,2.25,0.21c0.63,0.13,1.14,0.27,1.53,0.45c0.39,0.17,0.67,0.32,0.82,0.45v2.44h-2.93V6.72
	c0.24-0.02,0.41,0.02,0.54,0.09c0.12,0.06,0.2,0.16,0.24,0.28c0.03,0.11,0.02,0.23-0.02,0.35c-0.03,0.13-0.08,0.25-0.14,0.38
	c-0.17-0.19-0.37-0.34-0.59-0.47c-0.22-0.14-0.47-0.24-0.75-0.31c-0.27-0.06-0.57-0.09-0.92-0.09c-0.58,0-1.02,0.11-1.31,0.33
	c-0.3,0.22-0.45,0.52-0.45,0.89c0,0.27,0.08,0.49,0.24,0.66c0.16,0.17,0.37,0.32,0.63,0.45c0.28,0.13,0.6,0.23,0.94,0.33
	c0.36,0.09,0.74,0.19,1.13,0.28c0.49,0.14,0.97,0.3,1.46,0.47c0.5,0.16,0.96,0.38,1.36,0.66c0.42,0.28,0.76,0.64,1.01,1.08
	c0.25,0.42,0.38,0.95,0.38,1.57c0,0.88-0.23,1.62-0.68,2.23c-0.44,0.59-1.1,1.06-1.97,1.39c-0.86,0.31-1.93,0.47-3.19,0.47
	c-0.85,0-1.61-0.07-2.3-0.21c-0.67-0.13-1.26-0.28-1.76-0.47c-0.49-0.2-0.87-0.39-1.15-0.56v-2.68h3.01v2.72
	c-0.28-0.14-0.5-0.29-0.66-0.45c-0.16-0.17-0.26-0.34-0.3-0.49c-0.03-0.17-0.02-0.31,0.02-0.42c0.06-0.13,0.16-0.2,0.31-0.21
	c0.22,0.23,0.47,0.43,0.75,0.59c0.3,0.16,0.62,0.27,0.96,0.33c0.35,0.06,0.73,0.09,1.15,0.09c0.42,0,0.78-0.05,1.06-0.14
	c0.3-0.09,0.52-0.24,0.68-0.45C158.12,15.18,158.2,14.92,158.2,14.61z"/>
<path d="M28.34,33.67c0,1.06,0.29,1.93,0.86,2.6c0.58,0.67,1.38,1.01,2.39,1.01c0.94,0,1.65-0.25,2.13-0.76
	c0.49-0.51,0.73-1.07,0.73-1.7V34.8h-1.2v0.03c0,0.38-0.13,0.71-0.39,1c-0.26,0.29-0.68,0.43-1.26,0.43c-0.68,0-1.18-0.25-1.5-0.75
	c-0.32-0.5-0.48-1.12-0.48-1.85v-0.21c0-0.73,0.16-1.34,0.48-1.84c0.32-0.5,0.82-0.76,1.5-0.76c0.58,0,1,0.14,1.26,0.43
	c0.26,0.29,0.39,0.62,0.39,1v0.03h1.2V32.3c0-0.62-0.24-1.19-0.73-1.69c-0.49-0.51-1.2-0.76-2.13-0.76c-1.01,0-1.81,0.34-2.39,1.01
	c-0.58,0.67-0.86,1.54-0.86,2.6V33.67z"/>
<path d="M36.58,33.67c0,1.06,0.3,1.93,0.9,2.6c0.6,0.67,1.41,1.01,2.41,1.01c1.01,0,1.81-0.34,2.41-1.01c0.6-0.67,0.9-1.54,0.9-2.6
	v-0.21c0-1.06-0.3-1.93-0.9-2.6c-0.6-0.67-1.41-1.01-2.41-1.01c-1.01,0-1.81,0.34-2.41,1.01c-0.6,0.67-0.9,1.54-0.9,2.6V33.67z
	 M37.85,33.46c0-0.73,0.17-1.34,0.51-1.84c0.34-0.5,0.85-0.76,1.53-0.76c0.68,0,1.19,0.25,1.53,0.76c0.34,0.5,0.51,1.11,0.51,1.84
	v0.21c0,0.73-0.17,1.34-0.51,1.85c-0.34,0.5-0.85,0.75-1.53,0.75c-0.68,0-1.19-0.25-1.53-0.75c-0.34-0.5-0.51-1.12-0.51-1.85V33.46z
	"/>
<path d="M45.45,33.67c0,1.06,0.3,1.93,0.9,2.6c0.6,0.67,1.41,1.01,2.41,1.01c1.01,0,1.81-0.34,2.41-1.01c0.6-0.67,0.9-1.54,0.9-2.6
	v-0.21c0-1.06-0.3-1.93-0.9-2.6c-0.6-0.67-1.41-1.01-2.41-1.01c-1.01,0-1.81,0.34-2.41,1.01c-0.6,0.67-0.9,1.54-0.9,2.6V33.67z
	 M46.72,33.46c0-0.73,0.17-1.34,0.51-1.84c0.34-0.5,0.85-0.76,1.53-0.76s1.19,0.25,1.53,0.76c0.34,0.5,0.51,1.11,0.51,1.84v0.21
	c0,0.73-0.17,1.34-0.51,1.85c-0.34,0.5-0.85,0.75-1.53,0.75s-1.19-0.25-1.53-0.75c-0.34-0.5-0.51-1.12-0.51-1.85V33.46z"/>
<path d="M54.73,37.08h1.24v-2.34l4.42-4.69h-1.41l-3.01,3.24v-6.47h-1.24V37.08z M59.27,37.08h1.46l-3.42-4.49l-0.78,0.86
	L59.27,37.08z"/>
<path d="M62.77,37.08h1.24v-7.04h-1.24V37.08z M62.61,27.92c0,0.21,0.07,0.39,0.2,0.53c0.13,0.14,0.33,0.21,0.58,0.21
	c0.25,0,0.44-0.07,0.58-0.21c0.13-0.14,0.2-0.32,0.2-0.53c0-0.21-0.07-0.39-0.2-0.53c-0.13-0.14-0.33-0.21-0.58-0.21
	c-0.25,0-0.44,0.07-0.58,0.21C62.68,27.54,62.61,27.71,62.61,27.92z"/>
<path d="M67.15,37.08h1.24v-4.98c0.17-0.34,0.41-0.62,0.71-0.83c0.3-0.21,0.65-0.32,1.05-0.32c0.46,0,0.82,0.12,1.07,0.37
	c0.25,0.24,0.38,0.64,0.38,1.2v4.55h1.24v-4.54c0-0.95-0.21-1.62-0.64-2.02c-0.42-0.41-0.98-0.61-1.69-0.61
	c-0.45,0-0.85,0.09-1.22,0.28c-0.37,0.18-0.68,0.43-0.93,0.76h-0.04l-0.05-0.9h-1.12V37.08z"/>
<path d="M75.69,38.98c0.34,0.29,0.75,0.54,1.24,0.73C77.43,39.9,77.96,40,78.54,40c0.94,0,1.7-0.26,2.28-0.79s0.88-1.28,0.88-2.26
	v-6.9h-1.12l-0.05,0.92h-0.04c-0.18-0.29-0.45-0.54-0.82-0.74c-0.37-0.21-0.79-0.31-1.28-0.31c-0.89,0-1.61,0.33-2.14,1
	c-0.54,0.67-0.8,1.52-0.8,2.54v0.21c0,1.03,0.27,1.87,0.8,2.54c0.54,0.67,1.25,1,2.14,1c0.49,0,0.91-0.09,1.25-0.26
	c0.35-0.18,0.62-0.41,0.83-0.7v0.7c0,0.62-0.17,1.11-0.52,1.45c-0.35,0.34-0.82,0.51-1.42,0.51c-0.45,0-0.85-0.09-1.2-0.27
	c-0.36-0.17-0.63-0.37-0.83-0.6L75.69,38.98z M76.7,33.67v-0.21c0-0.71,0.16-1.31,0.47-1.8c0.31-0.49,0.8-0.73,1.47-0.73
	c0.45,0,0.82,0.12,1.14,0.37c0.31,0.25,0.54,0.52,0.68,0.84V35c-0.14,0.31-0.36,0.59-0.68,0.84c-0.31,0.25-0.69,0.37-1.14,0.37
	c-0.67,0-1.16-0.24-1.47-0.73C76.86,34.99,76.7,34.39,76.7,33.67z"/>
<path d="M88.76,35.01v0.03c0,0.68,0.25,1.22,0.74,1.63c0.49,0.41,1.2,0.61,2.14,0.61c0.94,0,1.64-0.2,2.11-0.6
	c0.47-0.4,0.7-0.91,0.7-1.54s-0.21-1.1-0.62-1.44c-0.41-0.33-0.99-0.59-1.75-0.77c-0.76-0.18-1.27-0.35-1.52-0.5
	c-0.26-0.16-0.39-0.37-0.39-0.64c0-0.27,0.11-0.49,0.33-0.67c0.23-0.18,0.59-0.27,1.08-0.27c0.49,0,0.85,0.1,1.08,0.29
	c0.24,0.19,0.35,0.45,0.35,0.79V32h1.24v-0.03c0-0.65-0.25-1.17-0.74-1.54c-0.49-0.38-1.14-0.58-1.94-0.58
	c-0.8,0-1.44,0.19-1.93,0.58c-0.48,0.38-0.72,0.86-0.72,1.44c0,0.58,0.22,1.03,0.67,1.36c0.45,0.32,1.05,0.57,1.81,0.75
	c0.76,0.18,1.25,0.35,1.48,0.52c0.23,0.17,0.34,0.4,0.34,0.72c0,0.31-0.14,0.57-0.43,0.76c-0.28,0.2-0.67,0.29-1.16,0.29
	c-0.49,0-0.89-0.1-1.18-0.31c-0.3-0.21-0.45-0.51-0.45-0.92v-0.03H88.76z"/>
<path d="M96.64,33.67c0,1.06,0.29,1.93,0.86,2.6c0.58,0.67,1.38,1.01,2.39,1.01c0.94,0,1.65-0.25,2.13-0.76
	c0.49-0.51,0.73-1.07,0.73-1.7V34.8h-1.2v0.03c0,0.38-0.13,0.71-0.39,1c-0.26,0.29-0.68,0.43-1.26,0.43c-0.68,0-1.18-0.25-1.5-0.75
	c-0.32-0.5-0.48-1.12-0.48-1.85v-0.21c0-0.73,0.16-1.34,0.48-1.84c0.32-0.5,0.82-0.76,1.5-0.76c0.58,0,1,0.14,1.26,0.43
	c0.26,0.29,0.39,0.62,0.39,1v0.03h1.2V32.3c0-0.62-0.24-1.19-0.73-1.69c-0.49-0.51-1.2-0.76-2.13-0.76c-1.01,0-1.81,0.34-2.39,1.01
	c-0.58,0.67-0.86,1.54-0.86,2.6V33.67z"/>
<path d="M105.3,37.08h1.24v-4.98c0.17-0.34,0.41-0.62,0.71-0.83c0.3-0.21,0.65-0.32,1.05-0.32c0.46,0,0.82,0.12,1.07,0.37
	c0.25,0.24,0.38,0.64,0.38,1.2v4.55H111v-4.54c0-0.95-0.21-1.62-0.64-2.02c-0.42-0.41-0.96-0.61-1.61-0.61
	c-0.46,0-0.87,0.09-1.26,0.27c-0.38,0.18-0.7,0.43-0.95,0.73v-4.11h-1.24V37.08z"/>
<path d="M113.59,33.67c0,1.06,0.3,1.93,0.9,2.6c0.6,0.67,1.41,1.01,2.41,1.01c1.01,0,1.81-0.34,2.41-1.01c0.6-0.67,0.9-1.54,0.9-2.6
	v-0.21c0-1.06-0.3-1.93-0.9-2.6c-0.6-0.67-1.41-1.01-2.41-1.01c-1.01,0-1.81,0.34-2.41,1.01c-0.6,0.67-0.9,1.54-0.9,2.6V33.67z
	 M114.86,33.46c0-0.73,0.17-1.34,0.51-1.84c0.34-0.5,0.85-0.76,1.53-0.76s1.19,0.25,1.53,0.76c0.34,0.5,0.51,1.11,0.51,1.84v0.21
	c0,0.73-0.17,1.34-0.51,1.85c-0.34,0.5-0.85,0.75-1.53,0.75s-1.19-0.25-1.53-0.75c-0.34-0.5-0.51-1.12-0.51-1.85V33.46z"/>
<path d="M122.46,33.67c0,1.06,0.3,1.93,0.9,2.6c0.6,0.67,1.41,1.01,2.41,1.01c1.01,0,1.81-0.34,2.41-1.01c0.6-0.67,0.9-1.54,0.9-2.6
	v-0.21c0-1.06-0.3-1.93-0.9-2.6c-0.6-0.67-1.41-1.01-2.41-1.01c-1.01,0-1.81,0.34-2.41,1.01c-0.6,0.67-0.9,1.54-0.9,2.6V33.67z
	 M123.73,33.46c0-0.73,0.17-1.34,0.51-1.84c0.34-0.5,0.85-0.76,1.53-0.76c0.68,0,1.19,0.25,1.53,0.76c0.34,0.5,0.51,1.11,0.51,1.84
	v0.21c0,0.73-0.17,1.34-0.51,1.85c-0.34,0.5-0.85,0.75-1.53,0.75c-0.68,0-1.19-0.25-1.53-0.75c-0.34-0.5-0.51-1.12-0.51-1.85V33.46z
	"/>
<path d="M131.8,37.08h1.24V26.81h-1.24V37.08z"/>
</svg>
